# xmcd CD database file
#
# Track frame offsets:
#	150
#	24902
#	47275
#	69742
#	89615
#	119752
#
# Disc length: 1852 seconds
#
# Revision: 0
# Processed by: cddbd v1.5PL3 Copyright (c) Steve Scherf et al.
# Submitted via: CDex 1.50
#
DISCID=4b073a06
DTITLE=Warne Marsh - music for prancing
DYEAR=1957
DGENRE=Jazz
TTITLE0=You Are Too Beautiful
TTITLE1=Autumn In New York
TTITLE2=Playa Del Ray
TTITLE3=Ad Libido
TTITLE4=Everything Happens To Me
TTITLE5=It's All Right With Me
EXTD=YEAR: 1957
EXTT0=
EXTT1=
EXTT2=
EXTT3=
EXTT4=
EXTT5=
PLAYORDER=
